HIERARCHY
ROOT Hips
{
	OFFSET 56.294300 -37.405914 94.045692
	CHANNELS 6 Xposition Yposition Zposition Xrotation Yrotation Zrotation
	JOINT spine
	{
		OFFSET 0.000000 -0.448574 7.800591
		CHANNELS 3 Xrotation Yrotation Zrotation
		JOINT spine1
		{
			OFFSET 0.000000 -0.000004 10.136398
			CHANNELS 3 Xrotation Yrotation Zrotation
			JOINT spine2
			{
				OFFSET 0.000000 0.000000 9.712509
				CHANNELS 3 Xrotation Yrotation Zrotation
				JOINT Neck
				{
					OFFSET 0.000000 -1.188873 24.936111
					CHANNELS 3 Xrotation Yrotation Zrotation
					JOINT Head
					{
						OFFSET 0.000000 -0.000004 7.533844
						CHANNELS 3 Xrotation Yrotation Zrotation
						End Site
						{
							OFFSET 0.000000 6.014019 18.236099
						}
					}
				}
				JOINT RightShoulder
				{
					OFFSET -4.089649 0.569454 10.488800
					CHANNELS 3 Xrotation Yrotation Zrotation
					JOINT RightArm
					{
						OFFSET 0.000000 0.000000 13.757004
						CHANNELS 3 Xrotation Yrotation Zrotation
						JOINT RightArmRoll
						{
							OFFSET 0.000000 -0.000004 6.944778
							CHANNELS 3 Xrotation Yrotation Zrotation
							JOINT RightForeArm
							{
								OFFSET 0.000000 0.000000 20.227692
								CHANNELS 3 Xrotation Yrotation Zrotation
								JOINT RightForeArmRoll
								{
									OFFSET 0.000000 -0.000004 7.793121
									CHANNELS 3 Xrotation Yrotation Zrotation
									JOINT RightHand
									{
										OFFSET 0.000000 0.000000 15.639099
										CHANNELS 3 Xrotation Yrotation Zrotation
										End Site
										{
											OFFSET 0.000000 0.000000 0.100006
										}
									}
								}
							}
						}
					}
				}
				JOINT LeftShoulder
				{
					OFFSET 4.089649 0.569454 10.488800
					CHANNELS 3 Xrotation Yrotation Zrotation
					JOINT LeftArm
					{
						OFFSET 0.000000 0.000000 13.757004
						CHANNELS 3 Xrotation Yrotation Zrotation
						JOINT LeftArmRoll
						{
							OFFSET 0.000000 -0.000004 6.944778
							CHANNELS 3 Xrotation Yrotation Zrotation
							JOINT LeftForeArm
							{
								OFFSET 0.000000 0.000000 20.227692
								CHANNELS 3 Xrotation Yrotation Zrotation
								JOINT LeftForeArmRoll
								{
									OFFSET 0.000000 -0.000004 7.793137
									CHANNELS 3 Xrotation Yrotation Zrotation
									JOINT LeftHand
									{
										OFFSET 0.000000 0.000000 15.639099
										CHANNELS 3 Xrotation Yrotation Zrotation
										End Site
										{
											OFFSET 0.000000 0.000000 0.100006
										}
									}
								}
							}
						}
					}
				}
			}
		}
	}
	JOINT RightUpLeg
	{
		OFFSET -6.914150 1.063580 -1.267883
		CHANNELS 3 Xrotation Yrotation Zrotation
		JOINT RightUpLegRoll
		{
			OFFSET 0.000000 -0.000004 18.337799
			CHANNELS 3 Xrotation Yrotation Zrotation
			JOINT RightLeg
			{
				OFFSET 0.000000 0.000004 -22.708496
				CHANNELS 3 Xrotation Yrotation Zrotation
				JOINT RightLegRoll
				{
					OFFSET 0.000000 -0.000004 22.782799
					CHANNELS 3 Xrotation Yrotation Zrotation
					JOINT RightFoot
					{
						OFFSET 0.000000 -0.000004 18.962906
						CHANNELS 3 Xrotation Yrotation Zrotation
						JOINT RightToeBase
						{
							OFFSET 0.000000 0.000000 15.852005
							CHANNELS 3 Xrotation Yrotation Zrotation
							End Site
							{
								OFFSET 0.006718 0.884888 7.677002
							}
						}
					}
				}
			}
		}
	}
	JOINT LeftUpLeg
	{
		OFFSET 6.914150 1.063580 -1.267883
		CHANNELS 3 Xrotation Yrotation Zrotation
		JOINT LeftUpLegRoll
		{
			OFFSET 0.000000 -0.000004 18.337898
			CHANNELS 3 Xrotation Yrotation Zrotation
			JOINT LeftLeg
			{
				OFFSET 0.000000 -0.000004 22.708405
				CHANNELS 3 Xrotation Yrotation Zrotation
				JOINT LeftLegRoll
				{
					OFFSET 0.000000 -0.000004 22.993393
					CHANNELS 3 Xrotation Yrotation Zrotation
					JOINT LeftFoot
					{
						OFFSET 0.000000 0.000000 18.752197
						CHANNELS 3 Xrotation Yrotation Zrotation
						JOINT LeftToeBase
						{
							OFFSET 0.000000 -0.000004 15.852005
							CHANNELS 3 Xrotation Yrotation Zrotation
							End Site
							{
								OFFSET -0.030113 0.884888 7.677002
							}
						}
					}
				}
			}
		}
	}
}
MOTION
Frames: 9
Frame Time: 0.041667
51.897598 -2.934616 52.697388 -31.664805 -5.571570 12.173058 5.003873 -0.172244 -1.574867 14.004398 -0.478825 -3.134009 15.648484 -0.528102 -3.128063 6.562634 27.223787 -2.906464 -0.783598 -26.276673 -3.134998 -7.127763 -55.769061 -8.161507 -39.370064 -142.331361 -70.316675 0.000017 0.000008 0.000005 44.842770 -18.605125 7.337705 -0.000001 -0.000007 -2.999990 -4.999763 -7.999045 -0.000081 -7.028498 74.492721 9.439055 -63.709874 114.274495 73.424411 -0.000001 0.000005 -0.000003 68.005919 5.269318 1.351668 0.000010 -0.000015 2.999979 -5.000201 7.999513 -0.000081 -56.167682 -175.696166 -2.703771 -179.999991 0.000005 -0.750005 75.047605 7.868294 5.641953 -0.000000 -0.000001 1.353150 78.750988 3.841947 11.693903 25.486462 -7.355598 0.038747 -58.857755 166.256790 -33.045828 -0.000022 -0.000004 -1.700160 -110.081271 -4.145601 0.035670 -0.000003 0.000002 -2.460347 59.741465 -7.049373 -2.332264 36.996519 8.222715 3.417136 
51.886299 -2.928230 52.707474 -31.668934 -5.571725 12.176714 5.006186 -0.173046 -1.575242 14.008401 -0.479874 -3.133881 15.652483 -0.528298 -3.127926 6.571622 27.204044 -2.909207 -0.789111 -26.254750 -3.136950 -7.136604 -55.774471 -8.172558 -39.371048 -142.324012 -70.323395 0.000013 0.000004 0.000003 44.856591 -18.598784 7.337143 -0.000002 -0.000005 -2.999990 -4.999761 -7.999045 -0.000080 -7.021636 74.477435 9.430565 -63.666898 114.278969 73.388737 -0.000001 0.000006 -0.000003 68.008672 5.269208 1.351514 0.000010 -0.000016 2.999980 -5.000200 7.999511 -0.000079 -56.163256 -175.695114 -2.701826 -179.999991 0.000007 -0.750005 75.048821 7.868690 5.641921 -0.000000 -0.000002 1.353360 78.749711 3.842225 11.692778 25.486465 -7.355599 0.038747 -58.856942 166.270806 -33.033978 -0.000020 -0.000002 -1.701049 -110.078177 -4.150341 0.027950 -0.000004 -0.000001 -2.460381 59.747654 -7.049350 -2.331951 37.018423 8.226917 3.426245 
51.893394 -2.931091 52.705784 -31.673585 -5.572089 12.180269 5.008617 -0.173880 -1.575672 14.012604 -0.480908 -3.133815 15.656684 -0.528450 -3.127843 6.580582 27.184995 -2.911984 -0.794904 -26.233317 -3.139064 -7.145295 -55.778569 -8.183316 -39.371645 -142.317483 -70.329468 0.000014 0.000006 0.000003 44.869555 -18.592543 7.336471 -0.000002 -0.000003 -2.999989 -4.999761 -7.999045 -0.000080 -7.014244 74.462278 9.421492 -63.625931 114.282998 73.354763 -0.000001 0.000006 -0.000003 68.011889 5.268834 1.351588 0.000010 -0.000016 2.999979 -5.000201 7.999514 -0.000080 -56.158328 -175.693994 -2.699792 -179.999991 0.000007 -0.751001 75.050146 7.869055 5.641979 -0.000001 -0.000001 1.353510 78.748516 3.842454 11.691639 25.486463 -7.355599 0.038747 -58.855282 166.284507 -33.023128 -0.000023 -0.000002 -1.701893 -110.075062 -4.154722 0.021294 -0.000004 0.000000 -2.460417 59.753500 -7.049281 -2.331844 37.038979 8.230866 3.434794 
51.887196 -2.925835 52.711784 -31.678448 -5.572594 12.183811 5.011114 -0.174736 -1.576139 14.016907 -0.481931 -3.133782 15.660985 -0.528571 -3.127796 6.589528 27.166543 -2.914796 -0.800877 -26.212186 -3.141272 -7.153880 -55.781783 -8.193893 -39.371277 -142.312483 -70.334160 0.000015 0.000008 0.000005 44.881818 -18.586514 7.335674 -0.000002 -0.000006 -2.999990 -4.999755 -7.999053 -0.000083 -7.006411 74.447020 9.411953 -63.584854 114.286960 73.320189 0.000001 0.000005 -0.000003 68.015563 5.268276 1.351703 0.000010 -0.000015 2.999980 -5.000199 7.999512 -0.000080 -56.153085 -175.692287 -2.698539 -179.999991 0.000006 -0.751001 75.051587 7.869431 5.641926 -0.000000 -0.000001 1.353620 78.747409 3.842629 11.690598 25.486462 -7.355598 0.038746 -58.853356 166.297498 -33.012101 -0.000021 -0.000004 -1.702693 -110.071941 -4.159104 0.014638 -0.000004 0.000002 -2.460469 59.759053 -7.049230 -2.331659 37.058598 8.234660 3.442928 
51.878296 -2.925320 52.706882 -31.683414 -5.573192 12.187278 5.013641 -0.175608 -1.576624 14.021208 -0.482947 -3.133769 15.665384 -0.528674 -3.127775 6.598487 27.148492 -2.917639 -0.806966 -26.191349 -3.143537 -7.162408 -55.784494 -8.204350 -39.370897 -142.307510 -70.338934 0.000017 0.000006 0.000003 44.893853 -18.580474 7.334833 -0.000001 -0.000007 -2.999990 -4.999762 -7.999050 -0.000080 -6.998407 74.431775 9.402218 -63.545642 114.290402 73.287486 -0.000000 0.000006 -0.000003 68.019340 5.267659 1.351903 0.000010 -0.000015 2.999980 -5.000200 7.999509 -0.000079 -56.147632 -175.690538 -2.697252 -179.999991 0.000006 -0.751003 75.052953 7.869880 5.641890 -0.000001 -0.000002 1.353710 78.746207 3.842813 11.689753 25.486462 -7.355597 0.038746 -58.851143 166.310366 -33.001456 -0.000021 -0.000003 -1.703469 -110.068785 -4.163107 0.008036 -0.000003 -0.000001 -2.460519 59.764490 -7.049143 -2.331578 37.077706 8.238340 3.450836 
51.887096 -2.928032 52.699280 -31.688386 -5.573810 12.190738 5.016188 -0.176480 -1.577120 14.025611 -0.483963 -3.133766 15.669786 -0.528771 -3.127752 6.607431 27.130440 -2.920469 -0.813073 -26.170514 -3.145823 -7.170920 -55.787110 -8.214786 -39.370645 -142.302565 -70.343688 0.000018 0.000007 0.000003 44.905683 -18.574496 7.334031 -0.000003 -0.000008 -2.999991 -4.999761 -7.999045 -0.000080 -6.990355 74.416625 9.392430 -63.504572 114.294398 73.252720 0.000001 0.000007 -0.000003 68.023213 5.267017 1.351994 0.000010 -0.000016 2.999980 -5.000200 7.999512 -0.000080 -56.142072 -175.688790 -2.695958 -179.999991 0.000006 -0.751999 75.054340 7.870345 5.641755 -0.000001 -0.000002 1.353800 78.745087 3.842956 11.688910 25.486465 -7.355598 0.038746 -58.849060 166.322715 -32.990145 -0.000022 0.000000 -1.704237 -110.065807 -4.166801 0.000497 -0.000003 -0.000001 -2.460582 59.769934 -7.049059 -2.331396 37.096707 8.242036 3.458658 
51.891296 -2.923058 52.708981 -31.693348 -5.574384 12.194220 5.018707 -0.177347 -1.577596 14.030012 -0.484981 -3.133752 15.674085 -0.528878 -3.127730 6.616373 27.112190 -2.923274 -0.819127 -26.149586 -3.148061 -7.179486 -55.790016 -8.225308 -39.370272 -142.297579 -70.348373 0.000019 0.000005 0.000003 44.917742 -18.568530 7.333163 -0.000002 -0.000004 -2.999990 -4.999759 -7.999051 -0.000082 -6.982423 74.401380 9.382770 -63.463536 114.298394 73.218098 0.000001 0.000006 -0.000003 68.027086 5.266414 1.352092 0.000010 -0.000015 2.999981 -5.000200 7.999512 -0.000079 -56.136553 -175.687615 -2.693838 -179.999991 0.000006 -0.751999 75.055774 7.870723 5.641808 0.000000 -0.000001 1.353900 78.743981 3.843124 11.687959 25.486465 -7.355598 0.038746 -58.846854 166.335583 -32.979381 -0.000023 -0.000002 -1.705018 -110.062584 -4.171160 -0.005151 -0.000003 -0.000000 -2.460628 59.775364 -7.048972 -2.331315 37.115914 8.245706 3.466663 
51.896000 -2.929203 52.702881 -31.698109 -5.574852 12.197800 5.021173 -0.178197 -1.578054 14.034217 -0.486007 -3.133708 15.678387 -0.529007 -3.127671 6.625326 27.093638 -2.926062 -0.825042 -26.128354 -3.150224 -7.188110 -55.793517 -8.235944 -39.370378 -142.291828 -70.353844 0.000016 0.000005 0.000003 44.930296 -18.562412 7.332454 -0.000003 -0.000006 -2.999992 -4.999761 -7.999048 -0.000082 -6.974812 74.386224 9.373449 -63.422493 114.302403 73.183769 -0.000001 0.000006 -0.000003 68.030590 5.265937 1.352232 0.000010 -0.000014 2.999979 -5.000201 7.999514 -0.000080 -56.131396 -175.685907 -2.692592 -179.999991 0.000007 -0.752996 75.057126 7.871148 5.641764 0.000001 -0.000001 1.354020 78.742785 3.843334 11.686921 25.486462 -7.355596 0.038746 -58.845044 166.348602 -32.968244 -0.000020 -0.000004 -1.705829 -110.059530 -4.175183 -0.011760 -0.000003 -0.000001 -2.460680 59.781012 -7.048894 -2.331218 37.135861 8.249609 3.474865 
51.884899 -2.933800 52.687981 -31.702658 -5.575153 12.201408 5.023564 -0.179021 -1.578463 14.038418 -0.487045 -3.133620 15.682487 -0.529173 -3.127573 6.634272 27.074388 -2.928784 -0.830736 -26.106822 -3.152261 -7.196853 -55.798018 -8.246807 -39.370877 -142.285244 -70.359869 0.000017 0.000006 0.000001 44.943389 -18.556210 7.331778 -0.000002 -0.000008 -2.999992 -4.999760 -7.999054 -0.000082 -6.967645 74.370959 9.364625 -63.381594 114.306528 73.149946 -0.000000 0.000005 -0.000003 68.033704 5.265625 1.352221 0.000010 -0.000016 2.999979 -5.000199 7.999512 -0.000079 -56.126670 -175.684814 -2.690591 -179.999991 0.000007 -0.752996 75.058458 7.871514 5.641821 -0.000000 -0.000002 1.354191 78.741590 3.843559 11.685784 25.486462 -7.355597 0.038747 -58.843603 166.362371 -32.957039 -0.000021 -0.000001 -1.706692 -110.056511 -4.179575 -0.019416 -0.000004 -0.000001 -2.460710 59.786982 -7.048858 -2.331016 37.156827 8.253649 3.483597 
